HIERARCHY
ROOT Hips
{
	OFFSET 0.000000 0.000000 0.000000
	CHANNELS 6 Xposition Yposition Zposition Zrotation Yrotation Xrotation 
	JOINT LHipJoint
	{
		OFFSET 0.000000 0.000000 0.000000
		CHANNELS 3 Zrotation Yrotation Xrotation
		JOINT LeftUpLeg
		{
			OFFSET 1.363060 -1.794630 0.839290
			CHANNELS 3 Zrotation Yrotation Xrotation
			JOINT LeftLeg
			{
				OFFSET 2.448110 -6.726130 0.000000
				CHANNELS 3 Zrotation Yrotation Xrotation
				JOINT LeftFoot
				{
					OFFSET 2.562200 -7.039590 0.000000
					CHANNELS 3 Zrotation Yrotation Xrotation
					JOINT LeftToeBase
					{
						OFFSET 0.157640 -0.433110 2.322550
						CHANNELS 3 Zrotation Yrotation Xrotation
						End Site
						{
							OFFSET 0.000000 0.000000 0.000000
						}
					}
				}
			}
		}
	}
	JOINT RHipJoint
	{
		OFFSET 0.000000 0.000000 0.000000
		CHANNELS 3 Zrotation Yrotation Xrotation
		JOINT RightUpLeg
		{
			OFFSET -1.305520 -1.794630 0.839290
			CHANNELS 3 Zrotation Yrotation Xrotation
			JOINT RightLeg
			{
				OFFSET -2.542530 -6.985550 0.000000
				CHANNELS 3 Zrotation Yrotation Xrotation
				JOINT RightFoot
				{
					OFFSET -2.568260 -7.056230 0.000000
					CHANNELS 3 Zrotation Yrotation Xrotation
					JOINT RightToeBase
					{
						OFFSET -0.164730 -0.452590 2.363150
						CHANNELS 3 Zrotation Yrotation Xrotation
						End Site
						{
							OFFSET 0.000000 0.000000 0.000000
						}
					}
				}
			}
		}
	}
}
MOTION
Frames: 30
Frame Time: 0.008333
-0.304511 16.999194 -1.269510 169.896516 88.412338 178.096983 -9.474996 1.850872 2.191651 -18.474413 5.461829 -30.768773 -2.836503 -0.293754 11.636056 1.459810 8.912232 -0.972534 1.451500 0.000000 -6.660400 10.918112 -3.207341 -1.089853 -0.827288 -11.738769 -4.106225 0.191058 -2.532949 37.874184 0.439231 10.807694 12.737110 3.483300 0.000000 -84.374400
-0.156096 17.014852 -1.322878 167.915051 88.016044 176.190988 -9.379960 1.898417 2.268655 -18.624261 4.743006 -30.131315 -2.815103 -0.303456 11.975508 1.551449 9.255005 -1.850297 1.342901 0.000000 -6.413500 11.114228 -3.086236 -1.101144 -1.185317 -11.729783 -5.743780 -0.130102 -2.677814 41.000727 0.226906 10.578854 15.432459 3.978399 -0.000000 -83.512300
-0.012572 17.028617 -1.376488 166.487477 87.624546 174.839337 -9.309433 1.928225 2.308365 -18.808385 4.180120 -29.490984 -2.805697 -0.318687 12.235210 1.624217 9.492343 -2.682649 1.216700 -0.000000 -6.269700 11.276692 -2.947218 -1.100640 -1.462028 -11.605546 -7.421576 -0.420800 -2.803999 44.124042 -0.016135 10.092850 18.090787 4.350100 -0.000000 -81.865800
0.126418 17.040793 -1.430417 165.547679 87.250799 173.966693 -9.264673 1.945522 2.307623 -19.015392 3.806414 -28.852796 -2.809869 -0.336586 12.420993 1.669777 9.585322 -3.446359 1.077499 0.000000 -6.197400 11.404766 -2.794703 -1.088270 -1.653293 -11.370470 -9.109961 -0.674581 -2.914263 47.198090 -0.279754 9.322956 20.623479 4.531500 -0.000000 -79.539300
0.261377 17.051790 -1.484148 164.754350 86.899656 173.220341 -9.235761 1.958457 2.266975 -19.250268 3.616129 -28.193145 -2.829014 -0.356621 12.517555 1.686089 9.533618 -4.117006 0.936200 0.000000 -6.165600 11.509566 -2.628556 -1.069329 -1.790956 -11.048510 -10.777087 -0.890683 -3.012983 50.182261 -0.553022 8.268533 22.933930 4.474200 -0.000000 -76.746201
0.392829 17.062136 -1.537769 164.110478 86.568519 172.595534 -9.222210 1.969420 2.189494 -19.499870 3.596726 -27.503135 -2.860945 -0.377435 12.530132 1.672597 9.338502 -4.686557 0.799800 0.000000 -6.148500 11.592720 -2.454779 -1.047858 -1.883293 -10.657836 -12.395260 -1.071705 -3.105589 53.036178 -0.825947 6.930211 24.927039 4.146301 -0.000000 -73.757600
0.521398 17.072292 -1.591687 163.769598 86.250382 172.245928 -9.226724 1.977964 2.082783 -19.739520 3.721281 -26.788477 -2.901043 -0.397637 12.477766 1.631615 9.010599 -5.161119 0.672500 0.000000 -6.130800 11.652763 -2.281528 -1.025805 -1.922732 -10.213466 -13.949626 -1.223755 -3.196475 55.726158 -1.090284 5.321728 26.518148 3.542200 0.000000 -70.838700
0.647674 17.082702 -1.646051 163.743858 85.934133 172.183256 -9.246599 1.984445 1.955921 -19.953205 3.943914 -26.040854 -2.944522 -0.417079 12.368038 1.569456 8.582601 -5.547704 0.558400 0.000001 -6.104900 11.693326 -2.112938 -1.007252 -1.915782 -9.735096 -15.426208 -1.355359 -3.288900 58.228098 -1.339609 3.484401 27.635202 2.692499 0.000000 -68.186000
0.772203 17.093682 -1.701141 164.125323 85.605877 172.504898 -9.280994 1.987319 1.819955 -20.120693 4.213686 -25.261706 -2.985734 -0.435844 12.214738 1.493690 8.090949 -5.861788 0.458600 0.000000 -6.073400 11.715629 -1.953473 -0.994405 -1.858383 -9.238523 -16.821806 -1.474612 -3.384507 60.524406 -1.569172 1.478189 28.225783 1.657200 0.000000 -65.893900
0.895492 17.105467 -1.757206 164.960306 85.250999 173.264262 -9.327642 1.985102 1.686134 -20.225929 4.477896 -24.452536 -3.019648 -0.454524 12.028218 1.412314 7.574829 -6.120793 0.373100 0.000000 -6.047900 11.721560 -1.805847 -0.988686 -1.746958 -8.737536 -18.138219 -1.588038 -3.483428 62.603249 -1.775516 -0.618645 28.260922 0.520001 0.000000 -63.961000
1.018091 17.118126 -1.814389 166.263983 84.854701 174.488602 -9.383770 1.976732 1.566176 -20.257175 4.687478 -23.622120 -3.042344 -0.473978 11.818403 1.332550 7.069847 -6.343099 0.300300 0.000000 -6.045901 11.712646 -1.671693 -0.988838 -1.575416 -8.241398 -19.386476 -1.699372 -3.584077 64.456372 -1.956179 -2.717166 27.741889 -0.623400 -0.000000 -62.323900
1.140227 17.131627 -1.872611 167.929349 84.406506 176.074427 -9.444891 1.962651 1.465657 -20.213874 4.810737 -22.763430 -3.052199 -0.495163 11.580834 1.259546 6.604245 -6.540403 0.239001 -0.000000 -6.086600 11.692115 -1.549644 -0.995293 -1.350132 -7.756003 -20.566566 -1.809448 -3.684211 66.076603 -2.109186 -4.723247 26.699957 -1.677201 -0.000000 -60.855500
1.262192 17.145842 -1.931805 169.848746 83.899108 177.922639 -9.507925 1.943946 1.389610 -20.099017 4.829111 -21.881976 -3.049199 -0.518803 11.313295 1.196006 6.192464 -6.722683 0.187100 0.000000 -6.188700 11.661542 -1.438215 -1.004911 -1.073491 -7.280921 -21.688005 -1.916010 -3.780289 67.459969 -2.233374 -6.554440 25.199593 -2.563500 0.000000 -59.406900
1.384296 17.160517 -1.991780 171.884403 83.329738 179.904881 -9.570331 1.922524 1.341023 -19.922380 4.737137 -20.987038 -3.035041 -0.545586 11.010219 1.142429 5.837378 -6.894628 0.143200 0.000000 -6.366800 11.621924 -1.334738 -1.012322 -0.752060 -6.809860 -22.763031 -2.014359 -3.867828 68.602841 -2.329155 -8.150044 23.343704 -3.235200 0.000000 -57.917400
1.506688 17.175409 -2.052218 173.882648 82.700062 -178.128616 -9.630622 1.900791 1.318289 -19.699538 4.547610 -20.081219 -3.012885 -0.575988 10.660913 1.096863 5.529288 -7.053528 0.106100 0.000000 -6.627300 11.574206 -1.236300 -1.012739 -0.399758 -6.335506 -23.798691 -2.098911 -3.943206 69.505529 -2.397638 -9.471639 21.252265 -3.676799 -0.000000 -56.289500
1.629318 17.190215 -2.112853 175.739353 82.017028 -176.285847 -9.689777 1.880395 1.313463 -19.444827 4.296752 -19.161347 -2.986699 -0.609939 10.254886 1.054489 5.241349 -7.192893 0.075100 -0.000000 -6.968400 11.518455 -1.140993 -1.003148 -0.031166 -5.849463 -24.792188 -2.164367 -4.003978 70.169020 -2.441032 -10.507536 19.055620 -3.904400 -0.000000 -54.456700
1.752386 17.204621 -2.173307 177.376970 81.288326 -174.640310 -9.747698 1.863073 1.322682 -19.175373 4.012075 -18.235923 -2.960351 -0.647899 9.785657 1.011092 4.949481 -7.303866 0.050000 -0.000000 -7.381400 11.455169 -1.047083 -0.977477 0.338791 -5.343209 -25.753714 -2.207124 -4.047973 70.597631 -2.463257 -11.272125 16.889931 -3.959800 0.000000 -52.496300
1.875884 17.218351 -2.233337 178.769047 80.524456 -173.222453 -9.805599 1.849697 1.337600 -18.903635 3.734031 -17.306350 -2.937504 -0.689657 9.250322 0.961256 4.621523 -7.377048 0.030700 0.000000 -7.851100 11.384840 -0.954036 -0.932678 0.697205 -4.810137 -26.682833 -2.225958 -4.074670 70.796548 -2.468370 -11.795076 14.869645 -3.894100 0.000000 -50.490100
1.999860 17.231142 -2.292678 179.913596 79.736759 -172.036909 -9.864114 1.840909 1.351389 -18.639380 3.496451 -16.376036 -2.921066 -0.734912 8.650694 0.900691 4.230449 -7.404675 0.017300 0.000000 -8.358500 11.308412 -0.861740 -0.866328 1.033542 -4.245739 -27.580036 -2.221986 -4.084280 70.772688 -2.460411 -12.114631 13.082454 -3.758200 -0.000000 -48.575600
2.124174 17.242780 -2.351299 -179.152231 78.936418 -171.055197 -9.925274 1.836494 1.355364 -18.383883 3.335287 -15.444902 -2.912790 -0.782402 7.995853 0.825643 3.749855 -7.382746 0.009100 -0.000000 -8.885000 11.226142 -0.771193 -0.778799 1.343932 -3.646613 -28.436462 -2.197631 -4.077801 70.531506 -2.442659 -12.270564 11.579928 -3.593699 -0.000000 -46.892800
2.249019 17.253042 -2.409020 -178.417592 78.131256 -170.264037 -9.987633 1.836800 1.349409 -18.143783 3.253379 -14.521538 -2.913232 -0.831701 7.297415 0.736657 3.178279 -7.311281 0.005499 -0.000000 -9.410300 11.139559 -0.682492 -0.669135 1.621363 -3.014457 -29.258039 -2.156269 -4.056511 70.083887 -2.417299 -12.296205 10.374831 -3.427899 0.000000 -45.557300
2.374202 17.261804 -2.465944 -177.831470 77.328610 -169.621372 -10.052967 1.840822 1.328000 -17.912503 3.264397 -13.603906 -2.921633 -0.880884 6.572943 0.634107 2.510416 -7.196084 0.004900 -0.000000 -9.920300 11.048335 -0.597058 -0.541469 1.868991 -2.351189 -30.031713 -2.100535 -4.022241 69.436467 -2.385353 -12.219211 9.446014 -3.274700 -0.000000 -44.629900
2.499832 17.268905 -2.522050 -177.378730 76.530801 -169.107477 -10.118900 1.848248 1.296535 -17.691847 3.342094 -12.701768 -2.936098 -0.929324 5.841012 0.523020 1.770706 -7.048383 0.005800 0.000000 -10.400200 10.953403 -0.515036 -0.396986 2.084834 -1.663745 -30.765033 -2.032804 -3.976696 68.602193 -2.346953 -12.057973 8.744737 -3.136500 -0.000000 -44.114699
2.625740 17.274291 -2.577481 -177.019043 75.738820 -168.687114 -10.185890 1.857536 1.254776 -17.473733 3.471479 -11.812996 -2.953877 -0.975375 5.120743 0.407759 0.979619 -6.883722 0.006600 0.000000 -10.843500 10.853961 -0.437342 -0.241664 2.275204 -0.959468 -31.449212 -1.954072 -3.921957 67.590101 -2.301710 -11.826688 8.207914 -3.009500 0.000000 -43.967800
2.752003 17.277866 -2.632281 -176.739480 74.949005 -168.341435 -10.251225 1.867795 1.210836 -17.257483 3.609672 -10.945122 -2.971860 -1.018641 4.430161 0.294973 0.176999 -6.720694 0.006300 0.000000 -11.244100 10.750225 -0.363937 -0.078092 2.441692 -0.248581 -32.093031 -1.865041 -3.859733 66.414256 -2.249309 -11.535612 7.768101 -2.886401 -0.000000 -44.109800
2.878635 17.279626 -2.686525 -176.524708 74.156945 -168.050639 -10.312802 1.878052 1.171483 -17.041693 3.718801 -10.104087 -2.987300 -1.058793 3.785025 0.190184 -0.600501 -6.579321 0.004800 0.000000 -11.601100 10.642005 -0.294622 0.090676 2.587703 0.458279 -32.704176 -1.765809 -3.791461 65.087819 -2.189785 -11.194335 7.365084 -2.761100 0.000001 -44.441300
3.005496 17.279576 -2.740302 -176.357374 73.357894 -167.797481 -10.369567 1.886914 1.139956 -16.823519 3.770979 -9.288334 -2.997786 -1.095432 3.195530 0.097313 -1.322537 -6.476968 0.002600 0.000000 -11.920299 10.528701 -0.229256 0.259992 2.718146 1.151042 -33.283940 -1.656011 -3.718534 63.622832 -2.123833 -10.813958 6.952596 -2.630200 0.000000 -44.855800
3.132593 17.277729 -2.793659 -176.232511 72.546928 -167.572334 -10.419439 1.893786 1.121847 -16.604903 3.738100 -8.503116 -3.001959 -1.128841 2.669585 0.019197 -1.962311 -6.427705 0.000600 0.000000 -12.208700 10.410511 -0.167312 0.428317 2.834601 1.819219 -33.843009 -1.535594 -3.641628 62.032664 -2.053077 -10.407221 6.505261 -2.494000 0.000000 -45.256000
3.259943 17.274134 -2.846558 -176.147129 71.720583 -167.369584 -10.461053 1.898257 1.119841 -16.388389 3.605646 -7.750978 -2.999488 -1.159349 2.210774 -0.043250 -2.505486 -6.440595 0.000000 0.000000 -12.477301 10.287812 -0.108286 0.594277 2.938213 2.453636 -34.389121 -1.404788 -3.561005 60.329090 -1.979887 -9.988666 6.019331 -2.356800 0.000000 -45.567700
3.387512 17.268864 -2.899031 -176.100730 70.877795 -167.187833 -10.493516 1.900268 1.134490 -16.177698 3.371469 -7.033901 -2.991028 -1.187307 1.819436 -0.090683 -2.949723 -6.518419 0.001500 -0.000000 -12.739000 10.161422 -0.051788 0.757143 3.029187 3.045990 -34.928080 -1.264392 -3.476477 58.521998 -1.907140 -9.573907 5.511177 -2.225200 0.000000 -45.751300
